HIERARCHY
ROOT SpineBase
{
  OFFSET 0.000000 0.000000 0.000000
  CHANNELS 6 Xposition Yposition Zposition Zrotation Xrotation Yrotation
  JOINT SpineMid
  {
    OFFSET 0.000000 27.257500 0.000000
    CHANNELS 3 Zrotation Xrotation Yrotation
    JOINT SpineShoulder
    {
      OFFSET 0.370523 20.231741 -0.515449
      CHANNELS 3 Zrotation Xrotation Yrotation
      JOINT Neck
      {
        OFFSET 0.238666 6.693195 -0.432196
        CHANNELS 3 Zrotation Xrotation Yrotation
        JOINT Head
        {
          OFFSET 2.364445 12.938333 0.229797
          CHANNELS 3 Zrotation Xrotation Yrotation
          End Site
          {
            OFFSET 0 0 0
          }
        }
      }
      JOINT ShoulderLeft
      {
        OFFSET -13.091154 -1.882124 -8.022405
        CHANNELS 3 Zrotation Xrotation Yrotation
        JOINT ElbowLeft
        {
          OFFSET -12.656753 -19.846815 1.946729
          CHANNELS 3 Zrotation Xrotation Yrotation
          JOINT WristLeft
          {
            OFFSET 0.241638 -20.310047 1.865041
            CHANNELS 3 Zrotation Xrotation Yrotation
            JOINT HandLeft
            {
              OFFSET -1.082963 -5.087628 1.449114
              CHANNELS 3 Zrotation Xrotation Yrotation
              JOINT HandTipLeft
              {
                OFFSET -0.030049 -4.894627 0.649910
                CHANNELS 3 Zrotation Xrotation Yrotation
                End Site
                {
                  OFFSET 0 0 0
                }
              }
              JOINT ThumbLeft
              {
                OFFSET 3.133384 1.032298 -0.936910
                CHANNELS 3 Zrotation Xrotation Yrotation
                End Site
                {
                  OFFSET 0 0 0
                }
              }
            }
          }
        }
      }
      JOINT ShoulderRight
      {
        OFFSET 13.508387 -1.877756 9.764679
        CHANNELS 3 Zrotation Xrotation Yrotation
        JOINT ElbowRight
        {
          OFFSET 0.319111 -19.869575 16.378910
          CHANNELS 3 Zrotation Xrotation Yrotation
          JOINT WristRight
          {
            OFFSET 0.676487 -13.650253 -23.767030
            CHANNELS 3 Zrotation Xrotation Yrotation
            JOINT HandRight
            {
              OFFSET -2.195772 -0.716874 -4.510868
              CHANNELS 3 Zrotation Xrotation Yrotation
              JOINT HandTipRight
              {
                OFFSET 1.567550 -3.282093 -2.929153
                CHANNELS 3 Zrotation Xrotation Yrotation
                End Site
                {
                  OFFSET 0 0 0
                }
              }
              JOINT ThumbRight
              {
                OFFSET -3.080552 0.839963 -3.711957
                CHANNELS 3 Zrotation Xrotation Yrotation
                End Site
                {
                  OFFSET 0 0 0
                }
              }
            }
          }
        }
      }
    }
  }
  JOINT HipLeft
  {
    OFFSET -4.617281 1.233617 -6.401734
    CHANNELS 3 Zrotation Xrotation Yrotation
    JOINT KneeLeft
    {
      OFFSET -4.869147 -31.706075 0.336032
      CHANNELS 3 Zrotation Xrotation Yrotation
      JOINT AnkleLeft
      {
        OFFSET -8.212036 -32.305609 6.400330
        CHANNELS 3 Zrotation Xrotation Yrotation
        JOINT FootLeft
        {
          OFFSET 5.333117 -3.142962 -9.732459
          CHANNELS 3 Zrotation Xrotation Yrotation
          End Site
          {
            OFFSET 0 0 0
          }
        }
      }
    }
  }
  JOINT HipRight
  {
    OFFSET 6.593399 0.223981 0.292351
    CHANNELS 3 Zrotation Xrotation Yrotation
    JOINT KneeRight
    {
      OFFSET -5.000141 -31.417008 5.237731
      CHANNELS 3 Zrotation Xrotation Yrotation
      JOINT AnkleRight
      {
        OFFSET -7.210960 -32.771615 8.022016
        CHANNELS 3 Zrotation Xrotation Yrotation
        JOINT FootRight
        {
          OFFSET 4.255582 -3.500085 -9.120912
          CHANNELS 3 Zrotation Xrotation Yrotation
          End Site
          {
            OFFSET 0 0 0
          }
        }
      }
    }
  }
}
MOTION
Frames: 5
Frame Time: 0.033333
-104.111125 66.815511 328.673197 1.984100 -2.685930 -39.472815 -0.475852 -0.057668 39.608779 -0.181338 0.325386 0.080302 -4.771152 6.255597 -0.587058 0.000000 0.000000 0.000000 18.034807 10.676583 -6.671399 -11.538644 10.456258 3.664654 17.189372 5.343385 3.121385 -17.688887 -10.768071 -3.984849 0.000000 0.000000 0.000000 0.000000 0.000000 0.000000 2.821534 29.324271 3.176358 -9.217630 -48.904052 -10.524259 43.808159 -8.079296 82.904308 -58.913502 38.760551 -57.162182 0.000000 0.000000 0.000000 0.000000 0.000000 0.000000 -7.214698 -0.209603 39.257011 2.975075 1.611666 -0.636601 2.022425 -5.130897 -5.909030 0.000000 0.000000 0.000000 -8.459467 1.513122 38.435107 3.354487 -2.368423 0.936013 4.212362 -1.267696 -9.158746 0.000000 0.000000 0.000000
-104.005945 66.782553 328.721662 2.099334 -2.762518 -39.978304 -0.424939 -0.077061 40.124327 -0.081806 0.203793 0.097792 -5.351797 6.554350 -0.564977 0.000000 0.000000 0.000000 17.630582 11.248478 -7.078421 -10.901322 10.199812 3.981425 15.689874 4.888972 2.666731 -16.072429 -11.775472 -3.139083 0.000000 0.000000 0.000000 0.000000 0.000000 0.000000 2.493387 28.791806 3.067593 -8.834192 -48.687338 -10.413568 50.319425 -10.395937 83.220110 -49.452060 45.866926 -57.889703 0.000000 0.000000 0.000000 0.000000 0.000000 0.000000 -7.288902 -0.293398 39.768582 2.727552 1.751789 -0.709766 2.301359 -5.331687 -6.241061 0.000000 0.000000 0.000000 -8.753271 1.361992 38.906258 3.489192 -2.352685 0.957128 4.318985 -1.461834 -9.535363 0.000000 0.000000 0.000000
-103.972864 66.738783 328.732891 2.105389 -2.786850 -40.393329 -0.324555 -0.072762 40.542955 0.037108 0.063690 0.114509 -5.896749 6.747734 -0.525246 0.000000 0.000000 0.000000 17.210331 11.748796 -7.418296 -10.146764 9.772217 4.290295 14.861075 3.328682 3.092315 -15.667842 -10.808815 -3.168826 0.000000 0.000000 0.000000 0.000000 0.000000 0.000000 2.232701 28.193505 2.986625 -9.283913 -50.538752 -10.598548 59.216359 -13.935999 80.453309 -42.240332 56.516230 -50.683698 0.000000 0.000000 0.000000 0.000000 0.000000 0.000000 -7.180166 -0.405453 40.201197 2.570713 1.951721 -0.770873 2.470332 -5.488457 -6.550264 0.000000 0.000000 0.000000 -8.797940 1.281215 39.314924 3.533562 -2.255112 0.947037 4.382733 -1.664095 -9.859082 0.000000 0.000000 0.000000
-103.932071 66.671632 328.775199 2.126188 -2.882336 -40.785653 -0.210570 -0.077455 40.942947 0.156683 -0.077950 0.133785 -6.416421 7.208475 -0.507837 0.000000 0.000000 0.000000 16.729142 12.312623 -7.761467 -9.117410 9.052116 4.640772 14.831276 0.789619 4.450666 -14.545400 -7.196272 -3.428307 0.000000 0.000000 0.000000 0.000000 0.000000 0.000000 2.097719 27.058367 2.992167 -9.072993 -49.494264 -10.616210 61.624298 -14.724979 80.560166 -35.707355 63.575433 -48.402057 0.000000 0.000000 0.000000 0.000000 0.000000 0.000000 -7.304564 -0.600356 40.609168 2.767008 2.134069 -0.797271 2.482277 -5.630663 -6.801690 0.000000 0.000000 0.000000 -8.937827 1.281491 39.701568 3.595411 -2.194761 0.947986 4.413281 -1.856240 -10.095004 0.000000 0.000000 0.000000
-103.864976 66.601268 328.831763 2.192916 -3.003822 -41.126458 -0.111862 -0.104355 41.294999 0.292820 -0.230856 0.155819 -6.934503 7.722005 -0.488720 0.000000 0.000000 0.000000 16.446357 12.609971 -7.855073 -8.200980 8.501548 4.755415 15.322348 -0.894769 5.746165 -13.692148 -5.107741 -3.755597 0.000000 0.000000 0.000000 0.000000 0.000000 0.000000 1.983957 26.977231 3.027754 -10.632088 -52.801006 -11.279212 63.942981 -16.777373 74.688484 -40.779817 66.370786 -37.445028 0.000000 0.000000 0.000000 0.000000 0.000000 0.000000 -7.494131 -0.721240 40.959284 2.861033 2.243521 -0.824030 2.542636 -5.748046 -6.959739 0.000000 0.000000 0.000000 -9.177293 1.278106 40.027660 3.716083 -2.148537 0.965302 4.407101 -2.033990 -10.255443 0.000000 0.000000 0.000000
